<svg xmlns="http://www.w3.org/2000/svg" width="256" height="256"><path fill-opacity=".016" d="M0 128.004v128.004l128.25-.254 128.25-.254.254-127.75L257.008 0H0v128.004m.485.496c0 70.4.119 99.053.265 63.672.146-35.38.146-92.98 0-128C.604 29.153.485 58.1.485 128.5" fill="#1976D2" fill-rule="evenodd"/><path fill-opacity=".478" d="M106.5 1.596C59.112 9.99 19.983 44.157 5.692 89.619c-7.554 24.035-7.554 52.727 0 76.762 14.328 45.582 54.01 80.089 101.234 88.033 63.886 10.747 126.365-28.857 144.456-91.566 1.373-4.759 2.808-11.407 3.189-14.773.381-3.366 1.083-6.361 1.561-6.656.477-.296.868-6.837.868-14.537 0-7.721-.392-13.758-.873-13.46-.48.296-1.183-2.196-1.561-5.539-.378-3.343-1.811-9.972-3.184-14.731-13.8-47.838-53.495-83.235-102.763-91.637-10.95-1.868-31.337-1.828-42.119.081M105 8.895C55.17 18.979 17.111 57.613 8.47 106.881c-1.886 10.75-1.886 31.488 0 42.238 3.133 17.866 11.144 36.394 22.201 51.346l6.519 8.817 13.492-13.391c9.022-8.955 14.308-15.047 15.956-18.391 1.356-2.75 11.107-15.337 21.669-27.972 17.57-21.018 19.742-23.251 25.536-26.25 3.482-1.803 7.763-3.278 9.511-3.278 2.716 0 4.781-1.605 14.146-11 6.031-6.05 10.412-11 9.736-11-2.098 0-9.275-7.157-11.447-11.414-2.875-5.635-3.616-19.243-1.451-26.641C137.473 49.23 145.621 43 156.5 43c10.99 0 18.978 6.191 22.28 17.27l1.72 5.77 14.392-14.424 14.391-14.425-8.891-6.605c-14.631-10.868-32.594-18.593-51.252-22.041-11.236-2.076-33.005-1.904-44.14.35M89.227 45.116c-9.489 4.698-13.822 14.317-12.993 28.847.55 9.646 2.519 14.549 7.932 19.744 10.999 10.559 28.741 7.021 36.06-7.189 2.86-5.552 3.597-19.189 1.436-26.573-3.144-10.744-11.28-16.946-22.228-16.944-4.027 0-7.307.68-10.207 2.115m91.268 39.889c-20.849 20.854-37.702 38.08-37.451 38.28.251.199 1.852 1.325 3.558 2.501 4.181 2.883 40.144 46.312 42.656 51.512 2.458 5.088 2.697 14.688.493 19.842-.856 2.001-3.204 5.463-5.217 7.691-7.998 8.853-18.986 10.66-30.903 5.083-9.387-4.392-15.905-5.89-25.631-5.89s-16.244 1.498-25.631 5.89c-12.359 5.784-23.139 3.744-31.653-5.989l-4.283-4.896-9.855 9.893-9.855 9.892 8.883 6.568c15.307 11.319 33.259 19.022 51.894 22.27 13.63 2.375 37.848 1.419 50.607-1.998 20.809-5.573 38.648-15.603 53.953-30.334 17.376-16.725 28.133-35.735 34.601-61.15 2.064-8.111 2.876-34.061 1.386-44.313-1.56-10.739-6.883-27.175-12.092-37.34-3.771-7.356-13.808-22.32-16.434-24.5-.762-.632-13.232 11.187-39.026 36.988M92.707 57.016c-3.618 2.846-5.033 8.01-4.494 16.406C88.854 83.401 92.414 88 99.5 88c7.086 0 10.646-4.599 11.287-14.578C111.582 61.03 107.887 55 99.5 55c-2.727 0-5.141.716-6.793 2.016m57 0c-3.618 2.846-5.033 8.01-4.494 16.406.502 7.816 2.276 11.569 6.348 13.424 4.663 2.124 6.946 1.388 11.802-3.803 4.543-4.857 4.637-5.09 4.637-11.532 0-7.478-1.729-12.508-5.117-14.88-3.277-2.296-10.019-2.099-13.176.385M59.942 99.9c-7.794 2.512-14.262 8.537-16.546 15.413-2.521 7.589-1.542 18.299 2.23 24.399 5.407 8.747 16.149 13.041 25.992 10.391 5.584-1.504 12.825-8.077 14.909-13.535 1.249-3.27 1.588-6.698 1.326-13.397-.318-8.114-.652-9.428-3.384-13.313-5.467-7.776-16.899-12.417-24.527-9.958m125.294.029c-4.96 1.253-10.905 5.614-13.977 10.254-2.39 3.61-2.806 5.357-3.112 13.078-.262 6.617.08 10.044 1.326 13.307 2.084 5.458 9.325 12.031 14.909 13.535 9.843 2.65 20.585-1.644 25.992-10.391 3.772-6.1 4.751-16.81 2.23-24.399-3.615-10.884-16.504-18.129-27.368-15.384M60.321 112.613C56.369 114.562 54 119.374 54 125.451c0 5.757 2.127 10.046 5.967 12.032 4.892 2.53 8.803 1.947 12.633-1.883 3.208-3.208 3.4-3.789 3.4-10.277 0-7.913-1.465-10.784-6.599-12.929-4.18-1.746-5.142-1.723-9.08.219m126.057-.176c-4.929 2.145-6.378 5.073-6.378 12.886 0 6.488.192 7.069 3.4 10.277 3.83 3.83 7.741 4.413 12.633 1.883 3.84-1.986 5.967-6.275 5.967-12.032 0-6.193-2.384-10.931-6.478-12.874-3.988-1.892-5.08-1.909-9.144-.14M.397 128c0 7.975.156 11.238.346 7.25.189-3.988.189-10.513 0-14.5-.19-3.987-.346-.725-.346 7.25m104.756 32.347C84.184 181.326 77 189.115 77 190.874c0 1.41 1.565 3.926 3.882 6.244 4.964 4.963 9.12 5.143 18.773.813 9.557-4.289 17.304-5.901 28.345-5.901s18.788 1.612 28.345 5.901c9.154 4.107 13.603 4.063 18.223-.181 3.883-3.567 5.459-8.375 4.393-13.403-.431-2.031-7.151-11.008-18.893-25.238-17-20.6-21.106-24.901-25.165-26.356-1.13-.405-9.829 7.664-29.75 27.594" fill="#1976D2" fill-rule="evenodd"/><path fill-opacity=".58" d="M114.268.963c-42.684 4.894-80.566 30.96-99.812 68.679C9.299 79.747 3.822 96.026 1.886 107c-1.859 10.541-1.577 34.533.524 44.5 5.718 27.126 16.738 47.774 35.527 66.563 18.821 18.821 38.692 29.415 66.592 35.504 11.007 2.403 35.935 2.403 46.942 0 28.012-6.113 47.695-16.608 66.592-35.504 11.255-11.255 18.706-21.61 24.87-34.563C249.418 169.873 255 149.797 255 140.101c0-2.191.45-4.261 1-4.601.55-.34 1-4.218 1-8.618 0-5.079-.365-7.774-1-7.382-.605.374-1-1.004-1-3.483 0-5.513-2.524-17.743-5.678-27.517-14.211-44.033-51.939-77.253-97.675-86.003-9.825-1.88-27.895-2.622-37.379-1.534M111.5 7.046C58.933 15.294 19.604 52.338 8.35 104.204c-2.495 11.499-2.495 36.093 0 47.592 2.294 10.569 5.652 20.431 10.054 29.526C23.56 191.973 35.43 209 37.699 209c.456 0 6.872-6.055 14.257-13.456 9.176-9.195 13.922-14.736 14.986-17.498 1.461-3.791 26.491-35.055 37.552-46.905 5.585-5.983 12.174-9.77 18.673-10.732 3.829-.567 5.575-1.869 15.016-11.192l10.684-10.55-4.384-2.78c-2.411-1.529-5.643-4.683-7.182-7.008-2.576-3.893-2.826-5.131-3.159-15.621-.438-13.773.908-18.206 7.32-24.116 11.399-10.508 29.143-6.846 35.659 7.358 1.009 2.2 1.845 5.462 1.857 7.25.012 1.787.365 3.25.785 3.25C180.784 67 209 38.697 209 37.673c0-2.364-17.369-14.314-28.5-19.608-16.414-7.808-30.266-11.05-49.5-11.585-7.425-.206-16.2.048-19.5.566M91.684 44.449c-5.903 2.105-9.636 5.643-12.717 12.051-2.872 5.973-2.805 24.137.111 30.161 8.62 17.807 36.182 16.103 41.781-2.583 1.86-6.21 1.423-22.863-.725-27.578-4.87-10.694-17.388-15.996-28.45-12.051M179.5 85.13c-23.389 23.466-37.482 38.313-36.653 38.613.741.269 2.959 1.899 4.93 3.623 5.191 4.54 38.889 45.415 40.888 49.596 6.136 12.835-.874 29.855-14.161 34.382-7.401 2.522-11.527 2.081-21.86-2.333-18.039-7.707-31.315-7.679-49.532.104-8.134 3.475-10.366 4.029-14.771 3.663-7.19-.596-14.115-4.399-18.332-10.067l-3.492-4.693-9.758 9.722C51.391 213.088 47 217.837 47 218.296c0 2.226 14.681 12.655 25.81 18.335 60.203 30.722 133.693 6.308 164.449-54.631 8.518-16.878 12.255-33.56 12.207-54.5-.047-20.542-3.341-35.203-11.87-52.822-5.141-10.62-17.029-27.683-19.281-27.675-.448.002-17.915 17.159-38.815 38.127M93.799 55.729c-4.819 2.988-6.056 6.737-5.657 17.132.348 9.056.445 9.382 3.624 12.222C94.341 87.383 95.976 88 99.5 88s5.159-.617 7.734-2.917c3.179-2.84 3.276-3.166 3.624-12.222.416-10.821-1.042-14.772-6.388-17.308-4.176-1.982-7.275-1.931-10.671.176m57.573-.14c-5.21 2.57-6.642 6.541-6.23 17.272.348 9.056.445 9.382 3.624 12.222 4.987 4.455 9.488 4.066 14.946-1.291L168 79.584v-8.388c0-9.315-1.348-12.789-6.04-15.56-3.436-2.031-6.54-2.044-10.588-.047m-94.133 45.746c-5.025 1.822-9.801 6.128-12.127 10.934-2.65 5.474-2.953 18.782-.559 24.513 4.312 10.323 16.203 16.032 26.742 12.839 6.793-2.057 11.132-5.75 14.252-12.128 2.437-4.98 2.658-6.332 2.253-13.758-.481-8.833-1.865-12.51-6.457-17.149-5.902-5.963-16.047-8.173-24.104-5.251m124.261.49c-8.908 4.206-12.674 10.41-13.3 21.91-.405 7.426-.184 8.778 2.253 13.758 7.331 14.984 26.377 17.576 37.347 5.082 4.231-4.819 5.484-9.705 5.059-19.736-.306-7.245-.763-9.098-3.118-12.655-4.311-6.513-9.741-9.575-17.63-9.941-4.896-.227-7.649.184-10.611 1.582M60.388 111.98C55.919 113.786 54 117.768 54 125.235c0 6.588.184 7.149 3.4 10.365 2.831 2.831 4.133 3.4 7.777 3.4C72.681 139 77 134.05 77 125.451c0-10.773-7.745-17.053-16.612-13.471m124.493.523c-7.477 4.063-7.898 19.87-.664 24.936 1.225.859 4.198 1.561 6.606 1.561 3.644 0 4.946-.569 7.777-3.4 3.237-3.237 3.4-3.745 3.4-10.6 0-6.855-.163-7.363-3.4-10.6-2.715-2.715-4.176-3.392-7.25-3.36-2.117.022-5.028.68-6.469 1.463M.349 128c0 4.675.173 6.588.383 4.25.211-2.338.211-6.163 0-8.5-.21-2.338-.383-.425-.383 4.25m103.776 32.375L75.763 188.75l1.185 3.593c1.468 4.447 5.979 8.365 10.638 9.239 2.751.516 5-.01 10.221-2.39 11.777-5.369 17.62-6.657 30.193-6.657s18.416 1.288 30.193 6.657c5.161 2.353 7.485 2.903 10.149 2.404 9.077-1.703 14.199-11.782 10.057-19.791-.88-1.703-9.47-12.593-19.089-24.2-15.489-18.694-22.437-25.583-25.817-25.6-.553-.003-13.769 12.764-29.368 28.37" fill="#1976D2" fill-rule="evenodd"/><path fill-opacity=".964" d="M94.5 43.898c-11.924 3.051-17.441 11.449-17.478 26.609-.012 4.953.418 10.539.955 12.413 5.114 17.831 29.742 21.788 39.925 6.415 3.567-5.387 4.501-10.574 3.893-21.644-.632-11.509-4.205-17.889-12.308-21.977-3.824-1.929-11.099-2.811-14.987-1.816m57 0c-6.989 1.788-11.726 5.595-15.059 12.102-2.005 3.915-3.1 17.121-2.017 24.339.87 5.805 5.491 12.683 10.357 15.418l3.87 2.175 4.281-4.363 4.282-4.363-3.065-.673c-1.686-.371-4.434-2.233-6.107-4.138-2.958-3.369-3.042-3.741-3.042-13.53V60.8l3.4-3.4c2.902-2.902 4.088-3.4 8.1-3.4s5.198.498 8.1 3.4c3.352 3.352 3.4 3.523 3.4 12.216v8.816l5.579-5.466c5.393-5.284 5.561-5.608 5.019-9.719-1.027-7.793-5.425-14.16-12.111-17.533-3.824-1.929-11.099-2.811-14.987-1.816M91.4 57.4 88 60.8v20.229l3.423 3.736c3.014 3.288 3.98 3.735 8.077 3.735 4.097 0 5.063-.447 8.077-3.735L111 81.029V60.8l-3.4-3.4c-2.902-2.902-4.088-3.4-8.1-3.4s-5.198.498-8.1 3.4m-33.716 44.049c-9.641 3.438-14.627 11.471-14.662 23.622-.042 14.377 7.613 23.841 20.007 24.738 15.722 1.137 26.388-10.973 24.615-27.945-1.044-9.98-5.146-15.927-13.644-19.78-5.195-2.355-10.874-2.576-16.316-.635m124.316.572c-8.55 3.996-12.603 9.891-13.644 19.843-.882 8.442.986 15.107 5.753 20.523 5.078 5.769 10.767 8.007 18.862 7.422 12.394-.897 20.049-10.361 20.007-24.738-.025-8.526-1.906-13.803-6.564-18.414-6.505-6.438-16.499-8.335-24.414-4.636M57.235 114.423c-3.619 3.317-3.735 3.637-3.735 10.294 0 8.134 1.848 11.695 7.239 13.947 5.084 2.125 9.448 1.026 13.286-3.346 3.064-3.489 3.165-3.887 2.802-11.073-.35-6.929-.604-7.657-3.617-10.349-4.821-4.308-10.919-4.106-15.975.527m125.555-.527c-3.013 2.692-3.267 3.42-3.617 10.349-.363 7.186-.262 7.584 2.802 11.073 3.838 4.372 8.202 5.471 13.286 3.346 5.391-2.252 7.239-5.813 7.239-13.947 0-6.657-.116-6.977-3.735-10.294-5.056-4.633-11.154-4.835-15.975-.527m-60.29 6.78c-4.194.931-10.122 3.584-13.155 5.886-3.966 3.01-38.01 44.056-41.246 49.729-1.641 2.875 7.152-5.295 27.75-25.785C112.432 134.01 126 120.397 126 120.256c0-.29-.652-.212-3.5.42m15.269 7.022-3.699 3.698 3.655 2.052c3.367 1.89 35.583 39.43 40.38 47.052 3.933 6.251 1.434 15.372-5.346 19.505-4.494 2.741-8.454 2.499-15.897-.971-19.057-8.885-40.818-8.678-59.054.563C95.2 200.919 91.543 202 89.681 202c-4.341 0-9.579-3.54-12.228-8.264l-2.078-3.704-3.788 3.879c-4.571 4.681-4.328 6.229 1.874 11.946 5.194 4.788 13.679 7.706 19.373 6.663 2.016-.37 7.041-2.186 11.166-4.037 9.531-4.276 14.646-5.434 24-5.434s14.469 1.158 24 5.434c4.125 1.851 9.15 3.667 11.166 4.037 5.427.994 14.102-1.864 18.948-6.242 6.179-5.582 8.34-10.473 8.323-18.83-.019-9.256-.873-10.631-23.338-37.608-16.368-19.656-22.296-25.84-24.77-25.84-.474 0-2.526 1.664-4.56 3.698" fill="#1976D2" fill-rule="evenodd"/></svg>